<svg xmlns="http://www.w3.org/2000/svg" width="1280" height="760" viewBox="0 0 1280 760">
  <defs>
    <linearGradient id="bg" x1="0" x2="1" y1="0" y2="1">
      <stop offset="0%" stop-color="#0f172a"/>
      <stop offset="100%" stop-color="#1e293b"/>
    </linearGradient>
  </defs>

  <rect width="1280" height="760" fill="#e2e8f0"/>
  <rect x="32" y="28" width="1216" height="704" rx="18" fill="url(#bg)"/>
  <rect x="32" y="28" width="1216" height="44" rx="18" fill="#0b1220"/>
  <circle cx="58" cy="50" r="7" fill="#ef4444"/>
  <circle cx="82" cy="50" r="7" fill="#f59e0b"/>
  <circle cx="106" cy="50" r="7" fill="#22c55e"/>
  <text x="140" y="56" font-family="Menlo, Monaco, 'Courier New', monospace" font-size="18" fill="#9fb2d7">learner-cli session</text>

  <g font-family="Menlo, Monaco, 'Courier New', monospace" font-size="20" fill="#dbeafe">
    <text x="62" y="112">$ go run ./apps/learner-cli list</text>
    <text x="62" y="148" fill="#93c5fd">Go Core 100 (go-core-100)</text>
    <text x="62" y="182" fill="#cbd5e1">A guided set of 100 Go katas grouped into category tracks for structured progression.</text>

    <text x="62" y="228" fill="#a7f3d0">- Foundations [foundations]</text>
    <text x="90" y="258" fill="#cbd5e1">Goal: Convert plain-language requirements into clear, testable Go functions.</text>
    <text x="90" y="286" fill="#cbd5e1">Progress: 1/20 (5%)</text>

    <text x="62" y="330" fill="#a7f3d0">- Concurrency and Reliability [concurrency-and-reliability]</text>
    <text x="90" y="360" fill="#cbd5e1">Goal: Design safe lifecycle ownership and resilient runtime behavior under load.</text>
    <text x="90" y="388" fill="#cbd5e1">Progress: 0/20 (0%)</text>

    <text x="62" y="432" fill="#fde68a">Overall progress: 1/100 (1%)</text>

    <text x="62" y="486">$ go run ./apps/learner-cli run --kata 001</text>
    <text x="62" y="518" fill="#86efac">PASS 001 — FizzBuzz</text>
    <text x="62" y="548" fill="#cbd5e1">Duration: 312ms</text>
    <text x="62" y="580" fill="#93c5fd">Well done. Next: run `learner-cli mark --kata 001` for AI coaching feedback.</text>

    <text x="62" y="636">$ go run ./apps/learner-cli mark --kata 001</text>
    <text x="62" y="668" fill="#c4b5fd">AI marking prompt generated: .learning/marking/kata-001-20260218-120000.md</text>
  </g>
</svg>
