<svg xmlns="http://www.w3.org/2000/svg" width="1400" height="840" viewBox="0 0 1400 840">
  <rect width="1400" height="840" fill="#dbeafe"/>
  <rect x="20" y="20" width="1360" height="800" rx="20" fill="#f8fbff"/>

  <rect x="44" y="44" width="320" height="752" rx="16" fill="#ffffff" stroke="#cbd5e1"/>
  <text x="66" y="84" font-family="IBM Plex Sans, Segoe UI, sans-serif" font-size="27" fill="#0f172a" font-weight="700">Learner Studio</text>
  <text x="66" y="110" font-family="IBM Plex Sans, Segoe UI, sans-serif" font-size="14" fill="#475569">Light mode - Quiz tab</text>

  <rect x="386" y="44" width="970" height="752" rx="16" fill="#ffffff" stroke="#cbd5e1"/>
  <text x="416" y="82" font-family="IBM Plex Sans, Segoe UI, sans-serif" font-size="25" fill="#0f172a" font-weight="700">001 - FizzBuzz</text>
  <text x="416" y="106" font-family="IBM Plex Sans, Segoe UI, sans-serif" font-size="14" fill="#64748b">Knowledge check: multiple-choice validation</text>

  <rect x="416" y="210" width="146" height="34" rx="16" fill="#ffffff" stroke="#cbd5e1"/>
  <text x="448" y="232" font-family="IBM Plex Sans, Segoe UI, sans-serif" font-size="13" fill="#334155">Documentation</text>
  <rect x="572" y="210" width="122" height="34" rx="16" fill="#ffffff" stroke="#cbd5e1"/>
  <text x="607" y="232" font-family="IBM Plex Sans, Segoe UI, sans-serif" font-size="13" fill="#334155">Workbench</text>
  <rect x="704" y="210" width="122" height="34" rx="16" fill="#ffffff" stroke="#cbd5e1"/>
  <text x="736" y="232" font-family="IBM Plex Sans, Segoe UI, sans-serif" font-size="13" fill="#334155">Flashcards</text>
  <rect x="836" y="210" width="92" height="34" rx="16" fill="#dbeafe" stroke="#93c5fd"/>
  <text x="865" y="232" font-family="IBM Plex Sans, Segoe UI, sans-serif" font-size="13" fill="#1e3a8a">Quiz</text>

  <rect x="416" y="266" width="912" height="64" rx="12" fill="#ffffff" stroke="#cbd5e1"/>
  <text x="438" y="304" font-family="IBM Plex Sans, Segoe UI, sans-serif" font-size="14" fill="#334155">Prev | Next | Reset   1/5</text>

  <rect x="416" y="346" width="912" height="332" rx="14" fill="#fbfdff" stroke="#cbd5e1"/>
  <text x="452" y="396" font-family="IBM Plex Sans, Segoe UI, sans-serif" font-size="22" fill="#0f172a" font-weight="700">When n &lt;= 0, what should FizzBuzz return?</text>

  <rect x="452" y="430" width="840" height="44" rx="10" fill="#ffffff" stroke="#cbd5e1"/>
  <text x="470" y="458" font-family="IBM Plex Sans, Segoe UI, sans-serif" font-size="15" fill="#334155">A. nil</text>

  <rect x="452" y="484" width="840" height="44" rx="10" fill="#dcfce7" stroke="#16a34a"/>
  <text x="470" y="512" font-family="IBM Plex Sans, Segoe UI, sans-serif" font-size="15" fill="#14532d">B. empty slice (correct)</text>

  <rect x="452" y="538" width="840" height="44" rx="10" fill="#ffffff" stroke="#cbd5e1"/>
  <text x="470" y="566" font-family="IBM Plex Sans, Segoe UI, sans-serif" font-size="15" fill="#334155">C. []string{"0"}</text>

  <rect x="452" y="592" width="840" height="44" rx="10" fill="#ffffff" stroke="#cbd5e1"/>
  <text x="470" y="620" font-family="IBM Plex Sans, Segoe UI, sans-serif" font-size="15" fill="#334155">D. panic</text>

  <rect x="416" y="696" width="912" height="76" rx="12" fill="#ffffff" stroke="#cbd5e1"/>
  <text x="438" y="740" font-family="IBM Plex Sans, Segoe UI, sans-serif" font-size="14" fill="#475569">Score: 4/5 correct (5 answered)</text>
</svg>
