<svg xmlns="http://www.w3.org/2000/svg" width="1400" height="840" viewBox="0 0 1400 840">
  <rect width="1400" height="840" fill="#dbeafe"/>
  <rect x="20" y="20" width="1360" height="800" rx="20" fill="#f8fbff"/>

  <rect x="44" y="44" width="320" height="752" rx="16" fill="#ffffff" stroke="#cbd5e1"/>
  <text x="66" y="84" font-family="IBM Plex Sans, Segoe UI, sans-serif" font-size="27" fill="#0f172a" font-weight="700">Learner Studio</text>
  <text x="66" y="110" font-family="IBM Plex Sans, Segoe UI, sans-serif" font-size="14" fill="#475569">Light mode - Flashcards tab</text>

  <rect x="386" y="44" width="970" height="752" rx="16" fill="#ffffff" stroke="#cbd5e1"/>
  <text x="416" y="82" font-family="IBM Plex Sans, Segoe UI, sans-serif" font-size="25" fill="#0f172a" font-weight="700">001 - FizzBuzz</text>
  <text x="416" y="106" font-family="IBM Plex Sans, Segoe UI, sans-serif" font-size="14" fill="#64748b">Learning mode: flashcards for behavior recall</text>

  <rect x="416" y="210" width="146" height="34" rx="16" fill="#ffffff" stroke="#cbd5e1"/>
  <text x="448" y="232" font-family="IBM Plex Sans, Segoe UI, sans-serif" font-size="13" fill="#334155">Documentation</text>
  <rect x="572" y="210" width="122" height="34" rx="16" fill="#ffffff" stroke="#cbd5e1"/>
  <text x="607" y="232" font-family="IBM Plex Sans, Segoe UI, sans-serif" font-size="13" fill="#334155">Workbench</text>
  <rect x="704" y="210" width="122" height="34" rx="16" fill="#dbeafe" stroke="#93c5fd"/>
  <text x="736" y="232" font-family="IBM Plex Sans, Segoe UI, sans-serif" font-size="13" fill="#1e3a8a">Flashcards</text>
  <rect x="836" y="210" width="92" height="34" rx="16" fill="#ffffff" stroke="#cbd5e1"/>
  <text x="865" y="232" font-family="IBM Plex Sans, Segoe UI, sans-serif" font-size="13" fill="#334155">Quiz</text>

  <rect x="416" y="266" width="912" height="64" rx="12" fill="#ffffff" stroke="#cbd5e1"/>
  <text x="438" y="304" font-family="IBM Plex Sans, Segoe UI, sans-serif" font-size="14" fill="#334155">Prev | Flip | Next   2/7</text>

  <rect x="416" y="346" width="912" height="332" rx="14" fill="#fbfdff" stroke="#cbd5e1"/>
  <text x="452" y="396" font-family="IBM Plex Sans, Segoe UI, sans-serif" font-size="14" fill="#64748b">Front</text>
  <text x="452" y="458" font-family="IBM Plex Sans, Segoe UI, sans-serif" font-size="28" fill="#0f172a" font-weight="700">When n is divisible by 3 and 5, what should happen?</text>
  <text x="452" y="516" font-family="IBM Plex Sans, Segoe UI, sans-serif" font-size="16" fill="#334155">Flip card to check your recall before coding.</text>

  <rect x="416" y="696" width="912" height="76" rx="12" fill="#ffffff" stroke="#cbd5e1"/>
  <text x="438" y="740" font-family="IBM Plex Sans, Segoe UI, sans-serif" font-size="14" fill="#475569">Tag: rule</text>
</svg>
