<svg xmlns="http://www.w3.org/2000/svg" width="1400" height="840" viewBox="0 0 1400 840">
  <rect width="1400" height="840" fill="#0b1220"/>
  <rect x="20" y="20" width="1360" height="800" rx="20" fill="#111b2d" stroke="#243a5f"/>

  <rect x="44" y="44" width="1312" height="752" rx="16" fill="#152238" stroke="#35517f"/>
  <text x="74" y="82" font-family="IBM Plex Sans, Segoe UI, sans-serif" font-size="24" fill="#e2e8f0" font-weight="700">Focus mode - Workbench only</text>
  <text x="74" y="108" font-family="IBM Plex Sans, Segoe UI, sans-serif" font-size="14" fill="#94a3b8">Sidebar, docs tab, flashcards, and quiz are hidden for deep implementation sessions.</text>

  <rect x="74" y="132" width="190" height="34" rx="16" fill="#1b2b44" stroke="#35517f"/>
  <text x="110" y="154" font-family="IBM Plex Sans, Segoe UI, sans-serif" font-size="13" fill="#cbd5e1">Exit focus</text>
  <rect x="274" y="132" width="120" height="34" rx="16" fill="#1d4ed8"/>
  <text x="310" y="154" font-family="IBM Plex Sans, Segoe UI, sans-serif" font-size="13" fill="#eff6ff">Run Tests</text>

  <rect x="74" y="188" width="624" height="502" rx="12" fill="#111b2d" stroke="#35517f"/>
  <text x="94" y="216" font-family="IBM Plex Sans, Segoe UI, sans-serif" font-size="14" fill="#e2e8f0" font-weight="700">Tests</text>
  <rect x="94" y="230" width="584" height="438" rx="10" fill="#0f172a" stroke="#243a5f"/>
  <rect x="94" y="230" width="56" height="438" fill="#1b2b44"/>
  <text x="132" y="256" font-family="JetBrains Mono, Menlo, monospace" font-size="11" fill="#94a3b8" text-anchor="end">1</text>
  <text x="158" y="256" font-family="JetBrains Mono, Menlo, monospace" font-size="11" fill="#cbd5e1">func TestFizzBuzz(t *testing.T) {</text>

  <rect x="716" y="188" width="624" height="502" rx="12" fill="#111b2d" stroke="#35517f"/>
  <text x="736" y="216" font-family="IBM Plex Sans, Segoe UI, sans-serif" font-size="14" fill="#e2e8f0" font-weight="700">Code (Your Solution)</text>
  <rect x="736" y="230" width="584" height="438" rx="10" fill="#0f172a" stroke="#243a5f"/>
  <rect x="736" y="230" width="56" height="438" fill="#1b2b44"/>
  <text x="774" y="256" font-family="JetBrains Mono, Menlo, monospace" font-size="11" fill="#94a3b8" text-anchor="end">1</text>
  <text x="800" y="256" font-family="JetBrains Mono, Menlo, monospace" font-size="11" fill="#cbd5e1">func FizzBuzz(n int) []string {</text>

  <rect x="74" y="710" width="1266" height="66" rx="12" fill="#111b2d" stroke="#35517f"/>
  <text x="96" y="748" font-family="IBM Plex Sans, Segoe UI, sans-serif" font-size="14" fill="#94a3b8">Shortcut: Ctrl/Cmd+Shift+M to toggle focus mode.</text>
</svg>
